<?xml version="1.0" standalone="no"?><!DOCTYPE svg PUBLIC "-//W3C//DTD SVG 1.1//EN" "http://www.w3.org/Graphics/SVG/1.1/DTD/svg11.dtd"><svg t="1575857566333" class="icon" viewBox="0 0 1024 1024" version="1.1" xmlns="http://www.w3.org/2000/svg" p-id="4745" xmlns:xlink="http://www.w3.org/1999/xlink" width="200" height="200"><defs><style type="text/css"></style></defs><path d="M281.6 450.56c20.48 0 38.4-17.92 38.4-38.4s-17.92-38.4-38.4-38.4-38.4 17.92-38.4 38.4 17.92 38.4 38.4 38.4z m153.6 0c20.48 0 38.4-17.92 38.4-38.4s-17.92-38.4-38.4-38.4-38.4 17.92-38.4 38.4 17.92 38.4 38.4 38.4z m153.6 0c20.48 0 38.4-17.92 38.4-38.4s-17.92-38.4-38.4-38.4-38.4 17.92-38.4 38.4 17.92 38.4 38.4 38.4z m215.04-99.84c0 7.68 2.56 15.36 2.56 23.04 0 15.36-2.56 33.28-5.12 48.64 33.28 40.96 56.32 89.6 56.32 143.36 0 84.48-51.2 161.28-128 204.8v89.6l-87.04-58.88c-20.48 5.12-43.52 7.68-66.56 7.68-66.56 0-102.4-20.48-148.48-53.76-12.8 0-28.16 2.56-43.52 2.56-10.24 0-20.48 0-30.72-2.56 61.44 58.88 122.88 97.28 222.72 97.28 20.48 0 40.96-2.56 61.44-5.12l143.36 89.6v-145.92c76.8-53.76 128-135.68 128-230.4 0-81.92-40.96-156.16-104.96-209.92zM360.96 698.88c20.48 2.56 64 7.68 87.04 7.68 184.32 0 307.2-135.68 307.2-296.96s-153.6-291.84-307.2-291.84c-184.32 0-332.8 130.56-332.8 291.84 0 92.16 35.84 171.52 102.4 230.4v145.92l143.36-87.04zM166.4 412.16c0-133.12 122.88-243.2 281.6-243.2 128 0 256 110.08 256 243.2s-99.84 243.2-256 243.2c-23.04 0-71.68-2.56-92.16-7.68l-87.04 58.88V614.4c-61.44-51.2-102.4-117.76-102.4-202.24z" p-id="4746"></path></svg>