<?xml version="1.0" standalone="no"?><!DOCTYPE svg PUBLIC "-//W3C//DTD SVG 1.1//EN" "http://www.w3.org/Graphics/SVG/1.1/DTD/svg11.dtd"><svg t="1575867991097" class="icon" viewBox="0 0 1037 1024" version="1.1" xmlns="http://www.w3.org/2000/svg" p-id="2721" xmlns:xlink="http://www.w3.org/1999/xlink" width="202.5390625" height="200"><defs><style type="text/css"></style></defs><path d="M344.323556 497.872502H126.662662A126.855186 126.855186 0 0 1 0.002338 370.237869V153.551284a126.855186 126.855186 0 0 1 126.660324-126.660323h217.660894a126.855186 126.855186 0 0 1 126.660324 126.660323V370.237869a126.855186 126.855186 0 0 1-126.660324 127.634633zM126.662662 85.349572A68.201713 68.201713 0 0 0 58.460949 153.551284V370.237869a68.201713 68.201713 0 0 0 68.201713 68.201712h217.660894a68.201713 68.201713 0 0 0 68.201713-68.201712V153.551284a68.201713 68.201713 0 0 0-68.201713-68.201712zM344.323556 1024H126.662662A126.855186 126.855186 0 0 1 0.002338 896.365366V679.678782a126.855186 126.855186 0 0 1 126.660324-126.660323h217.660894a126.855186 126.855186 0 0 1 126.660324 126.660323V896.365366a126.855186 126.855186 0 0 1-126.660324 127.634634zM126.662662 611.477069a68.201713 68.201713 0 0 0-68.201713 68.201713V896.365366a68.201713 68.201713 0 0 0 68.201713 68.201713h217.660894a68.201713 68.201713 0 0 0 68.201713-68.201713V679.678782a68.201713 68.201713 0 0 0-68.201713-68.201713zM883.311948 1024H665.845916a126.855186 126.855186 0 0 1-126.660324-126.660324V679.678782a126.855186 126.855186 0 0 1 126.660324-126.660323h217.466032a126.855186 126.855186 0 0 1 126.660324 126.660323V896.365366a126.855186 126.855186 0 0 1-126.660324 127.634634zM665.845916 611.477069a68.201713 68.201713 0 0 0-68.201713 68.201713V896.365366a68.201713 68.201713 0 0 0 68.201713 68.201713h217.466032a68.201713 68.201713 0 0 0 68.201713-68.201713V679.678782a68.201713 68.201713 0 0 0-68.201713-68.201713zM774.578932 524.763463a125.686013 125.686013 0 0 1-89.636537-37.023787l-136.403425-136.403425a126.855186 126.855186 0 0 1 0-179.078211l136.403425-136.403425a126.855186 126.855186 0 0 1 179.078212 0l136.403425 136.403425a126.855186 126.855186 0 0 1 0 179.078211l-136.403425 136.403425a125.686013 125.686013 0 0 1-89.441675 37.023787z m0-466.304852a68.006851 68.006851 0 0 0-48.325785 19.486203l-136.403425 136.403426a68.201713 68.201713 0 0 0 0 96.456708l136.403425 136.403425a70.150333 70.150333 0 0 0 96.456708 0l136.403425-136.403425a68.396575 68.396575 0 0 0 0-96.456708l-136.403425-136.403426a68.006851 68.006851 0 0 0-48.130923-19.486203z" p-id="2722"></path></svg>